<?xml version="1.0" encoding="UTF-8"?>
<svg fill="currentColor" width="512pt" height="512pt" version="1.1" viewBox="0 0 512 512" xmlns="http://www.w3.org/2000/svg">
 <path d="m486.4 256c0-125.52-104.88-230.4-230.4-230.4-125.52 0-230.4 104.88-230.4 230.4 0 125.52 104.88 230.4 230.4 230.4 125.52 0 230.4-104.88 230.4-230.4zm-360.74-17.922c-9.8984 0-17.922 8.0195-17.922 17.922 0 9.8984 8.0195 17.922 17.922 17.922h112.42v112.42c0 9.8984 8.0195 17.922 17.922 17.922 9.8984 0 17.922-8.0195 17.922-17.922v-112.42h112.42c9.8984 0 17.922-8.0195 17.922-17.922 0-9.8984-8.0195-17.922-17.922-17.922h-112.42v-112.42c0-9.8984-8.0195-17.922-17.922-17.922-9.8984 0-17.922 8.0195-17.922 17.922v112.42z" fill-rule="evenodd"/>
</svg>
