<?xml version="1.0" encoding="UTF-8"?>
<svg fill="currentColor" width="512pt" height="512pt" version="1.1" viewBox="0 0 512 512" xmlns="http://www.w3.org/2000/svg">
 <path d="m256 25.602c127.24 0 230.4 103.16 230.4 230.4s-103.16 230.4-230.4 230.4-230.4-103.16-230.4-230.4 103.16-230.4 230.4-230.4zm-95.781 369.6c27.219 18.762 60.223 29.762 95.781 29.762 93.32 0 168.96-75.637 168.96-168.96 0-35.559-11-68.562-29.762-95.781zm95.781-308.16c-93.32 0-168.96 75.637-168.96 168.96 0 35.559 11 68.543 29.738 95.758l234.98-234.98c-27.219-18.738-60.199-29.738-95.758-29.738z" fill-rule="evenodd"/>
</svg>
