<?xml version="1.0" encoding="UTF-8"?>
<svg fill="currentColor" width="512pt" height="512pt" version="1.1" viewBox="0 0 512 512" xmlns="http://www.w3.org/2000/svg">
 <path d="m107.52 51.199c0-14.141 11.461-25.602 25.602-25.602s25.602 11.461 25.602 25.602v51.199c0 14.141-11.461 25.602-25.602 25.602s-25.602-11.461-25.602-25.602z"/>
 <path d="m353.28 51.199c0-14.141 11.461-25.602 25.602-25.602 14.141 0 25.602 11.461 25.602 25.602v51.199c0 14.141-11.461 25.602-25.602 25.602-14.141 0-25.602-11.461-25.602-25.602z"/>
 <path d="m330.24 76.801h-148.48v25.602c0 26.859-21.781 48.641-48.641 48.641-26.859 0-48.641-21.781-48.641-48.641v-25.602h-23.039c-19.801 0-35.84 16.039-35.84 35.84v92.16h460.8v-92.16c0-19.801-16.039-35.84-35.84-35.84h-23.039v25.602c0 26.859-21.781 48.641-48.641 48.641s-48.641-21.781-48.641-48.641z"/>
 <path d="m25.602 450.56v-209.92h460.8v209.92c0 19.801-16.039 35.84-35.84 35.84h-389.12c-19.801 0-35.84-16.039-35.84-35.84z"/>
</svg>
