<?xml version="1.0" encoding="UTF-8"?>
<svg fill="currentColor" width="1200pt" height="1200pt" version="1.1" viewBox="0 0 1200 1200" xmlns="http://www.w3.org/2000/svg">
 <path d="m1038.6 898.87-31.125-15.562c13.875-12.188 21.797-29.719 21.75-48.188 0.046875-13.5-4.2188-26.625-12.188-37.5l33.188-18.75c69.375-40.078 94.266-128.06 56.25-198.56l-100.12-186.56c-13.5-25.359-16.219-55.078-7.5938-82.5 8.625-27.375 27.938-50.156 53.531-63.188l48.75-23.062c4.5-2.2031 7.9219-6.1406 9.5156-10.875 1.5938-4.7812 1.1719-9.9844-1.0781-14.438-4.6875-9.1875-15.891-12.891-25.125-8.25l-48.75 24.375c-34.641 17.531-60.75 48.281-72.422 85.266-11.672 37.031-7.9688 77.203 10.359 111.42l100.69 186c27.891 52.734 8.8594 118.03-42.938 147.56l-43.875 24.938c-3.4219-90.844-33.281-178.69-85.922-252.74-52.594-74.109-125.72-131.26-210.32-164.44l-46.688-182.44c-5.2969-20.203-23.531-34.312-44.438-34.312s-39.141 14.109-44.438 34.312l-46.688 182.44c-168.74 67.875-294 234.94-296.81 417.19l-43.312-24.938c-52.031-29.531-71.062-95.156-42.938-147.94l100.69-185.63c18.375-34.266 22.125-74.438 10.453-111.52-11.672-37.078-37.828-67.828-72.516-85.359l-48.75-24.375c-9.3281-4.5938-20.625-0.79688-25.219 8.5312s-0.79687 20.625 8.5312 25.219l48.75 24.188c25.359 12.984 44.438 35.578 53.062 62.719s6.0469 56.578-7.125 81.844l-99.938 186.37c-38.016 70.5-13.125 158.48 56.25 198.56l33.188 18.75c-19.078 26.812-14.953 63.703 9.5625 85.688l-18.75 9.375c-52.406 25.875-89.203 75.328-99 132.94-1.5938 10.359 5.4844 20.062 15.844 21.656 10.359 1.5938 20.062-5.4844 21.656-15.844 7.6875-45.562 36.656-84.703 78-105.38l39.562-18.75c24.188 52.312 68.25 92.812 122.44 112.5 159.71 59.812 335.68 59.812 495.37 0 54.188-19.688 98.25-60.188 122.44-112.5l51.75 25.688c33.703 17.016 57.797 48.516 65.438 85.5 2.0156 10.359 12.047 17.109 22.406 15.094s17.109-12.047 15.094-22.406c-9.9844-48.703-41.859-90.094-86.438-112.12zm-607.31-65.812c111.09-25.312 226.4-25.312 337.5 0-67.125 104.44-270.37 104.44-337.5 0zm373.5-29.438c-134.11-36-275.39-36-409.5 0-51.047 13.547-100.59 32.438-147.74 56.25-8.3906 4.4062-18.469 3.9844-26.438-1.125-8.625-5.4375-13.5-15.234-12.703-25.359 0.84375-10.172 7.2656-19.031 16.641-23.016 3.375-1.5 14.062-7.3125 16.875-8.625 224.26-119.81 493.5-119.81 717.74 0 14.062 7.3125 33.562 14.062 32.812 33.375-0.09375 9.375-4.9688 18-12.891 22.922-7.9688 4.9219-17.906 5.3906-26.297 1.2656-47.438-23.672-97.219-42.328-148.5-55.688zm-436.5-245.81c3.2344-4.5469 8.2969-7.4062 13.828-7.8281s10.969 1.5938 14.859 5.5781c24.844 18.375 36.375 49.781 29.25 79.875-2.3906 10.078-12.516 16.359-22.594 13.969s-16.359-12.516-13.969-22.594c3.75-15.469-2.1562-31.641-15-41.062-4.9219-2.5312-8.4375-7.125-9.6562-12.469-1.2656-5.3906-0.046875-11.062 3.2812-15.469zm435-2.25c7.875-6.7969 19.734-5.9062 26.531 1.9688s5.9062 19.734-1.9688 26.531c-14.391 9.0469-21.422 26.25-17.438 42.75 1.3594 5.6719-0.046875 11.625-3.7031 16.125-3.6562 4.5469-9.2344 7.0781-15.047 6.9375-8.8594 0.23438-16.688-5.8125-18.75-14.438-6.9375-30.328 5.0625-61.828 30.375-79.875zm-211.31-375c1.0781-3.5156 4.3594-5.9531 8.0625-5.9531 3.7031 0 6.9844 2.4375 8.0625 5.9531l41.438 161.81c-32.719-6.1875-66.281-6.1875-99 0z"/>
</svg>
