<?xml version="1.0" encoding="UTF-8"?>
<svg fill="currentColor" width="512pt" height="512pt" version="1.1" viewBox="0 0 512 512" xmlns="http://www.w3.org/2000/svg">
 <path d="m256 486.4c127.24 0 230.4-103.16 230.4-230.4s-103.16-230.4-230.4-230.4-230.4 103.16-230.4 230.4 103.16 230.4 230.4 230.4zm120.28-289.5c6.9609-7.0586 6.8594-18.398-0.17969-25.34-7.0586-6.9609-18.398-6.8594-25.34 0.17969l-133.52 135.6-53.5-53.738c-6.9805-7.0195-18.32-7.0391-25.34-0.058594-7.0195 6.9805-7.0391 18.32-0.058594 25.34l58.961 59.238c11.059 11.102 29.039 11.039 40.02-0.12109z" fill-rule="evenodd"/>
</svg>
