<?xml version="1.0" encoding="UTF-8"?>
<svg fill="currentColor" width="512pt" height="512pt" version="1.1" viewBox="0 0 512 512" xmlns="http://www.w3.org/2000/svg">
 <path d="m256 486.4c127.24 0 230.4-103.16 230.4-230.4s-103.16-230.4-230.4-230.4-230.4 103.16-230.4 230.4 103.16 230.4 230.4 230.4zm-79.477-335.24c-7-6.9805-18.359-6.9805-25.359 0-6.9805 7-6.9805 18.359 0 25.359l79.5 79.477-79.5 79.477c-6.9805 7-6.9805 18.359 0 25.359 7 6.9805 18.359 6.9805 25.359 0l79.477-79.5 79.477 79.5c7 6.9805 18.359 6.9805 25.359 0 6.9805-7 6.9805-18.359 0-25.359l-79.5-79.477 79.5-79.477c6.9805-7 6.9805-18.359 0-25.359-7-6.9805-18.359-6.9805-25.359 0l-79.477 79.5z" fill-rule="evenodd"/>
</svg>
