<?xml version="1.0" encoding="UTF-8"?>
<svg fill="currentColor" width="512pt" height="512pt" version="1.1" viewBox="0 0 512 512" xmlns="http://www.w3.org/2000/svg">
 <path d="m499.2 256c0 134.66-109.05 243.71-243.71 243.71-127.49 0-231.94-97.789-242.69-222.72h278.53l-73.727 74.238c-8.1914 8.1914-8.1914 21.504 0 29.695 4.0977 4.0977 9.2148 6.1445 14.848 6.1445 5.6328 0 10.754-2.0469 14.848-6.1445l110.08-110.08c8.1914-8.1914 8.1914-21.504 0-29.695l-110.08-110.08c-8.1914-8.1914-21.504-8.1914-29.695 0-8.1914 8.1914-8.1914 21.504 0 29.695l74.238 74.238-279.04 0.003906c10.75-124.93 115.2-222.72 242.69-222.72 134.66 0 243.71 109.05 243.71 243.71z"/>
</svg>
