<?xml version="1.0" encoding="UTF-8"?>
<svg fill="currentColor" width="1200pt" height="1200pt" version="1.1" viewBox="0 0 1200 1200" xmlns="http://www.w3.org/2000/svg">
 <path d="m1081.3 348.28c12.047-0.46875 24-4.5938 33.844-12.188 12.281-9.4688 21.234-24.094 24.609-40.078 1.1719-5.5312-1.6406-11.109-6.7969-13.453-17.344-7.875-36.609-9.3281-54.703-4.7344 11.672-31.875 1.6875-61.688-29.812-87.328-3.7969-3.0938-9.0469-3.6094-13.359-1.2656-4.3125 2.2969-6.7969 6.9844-6.2812 11.812 2.0156 19.969-0.42188 35.391-6.8906 47.297-10.359-4.0312-22.734-2.625-34.734-1.2188-7.9688 0.9375-16.219 1.9219-20.906 0.70312-23.672-6.0938-43.594-4.875-60.188 3.1875-6.2812-6.9844-12-14.062-15.609-21.797-4.1719-8.9531-4.875-18.375-1.9219-25.219 2.0625-4.6875 0.89062-10.172-2.8594-13.688-3.75-3.4688-9.3281-4.2188-13.875-1.7812-16.078 8.5781-27.75 24.047-33.844 44.766-3.5156 11.953-3.7969 24.656-1.125 36.703-23.484-4.7344-49.688-3.3281-78.516 4.4062-3.4219 0.9375-6.2344 3.2812-7.7812 6.5156-1.5 3.1875-1.5469 6.8906-0.09375 10.125 2.3906 5.2969 5.0156 10.125 7.7812 14.766-30.938 2.7188-61.266 5.1094-91.781 7.0312-116.06 6.8438-214.4 4.9688-339.42-6.375l-1.5-0.14062c-5.1094-0.46875-10.359-0.89062-15.797-1.4531-21.469-1.9219-39.938-1.2188-56.531 2.1562-17.812 3.7031-36.375 10.641-52.969 22.641-1.5469-0.70312-3.1875-1.125-4.9688-1.125h-8.1562c-50.156 0-90.984 40.828-90.984 91.031v199.6c-0.89062 0.1875-1.8281 0.28125-2.7188 0.5625-14.297 4.4062-23.719 20.953-26.25 25.922-6.6562 12.938-8.7188 27.938-5.8594 42.188 0.9375 4.7812 2.4375 9.2812 3.8438 13.641 1.2188 3.7969 2.4844 7.5938 3.3281 11.484 1.0781 4.875 2.1562 13.969-2.4375 20.203-1.5469 2.0625-1.5938 4.875-0.14062 6.9844 1.1719 1.6406 3 2.625 4.9688 2.625 0.51562 0 1.0781-0.09375 1.5938-0.23438 18.469-5.1094 34.828-18.984 48.609-41.25 6.5156-10.5 10.453-19.547 12.375-28.453 3.8438-17.625-1.2656-33.891-13.266-44.766v-208.55c0-33.047 24.094-60.469 55.594-65.859-20.438 27.422-32.672 69.188-26.719 132.47 12 101.34 21.891 212.81-12.797 253.18-2.7656 3.2344-3.6562 7.7344-2.25 11.766 13.312 39.047 15.75 115.12 17.203 196.26 0 0.51562 0.046875 1.0312 0.14062 1.5l7.7344 53.625c0.84375 5.9531 5.9531 10.359 11.953 10.359h86.109c3.6094 0 7.0312-1.5938 9.3281-4.4062 2.2969-2.7656 3.2344-6.4688 2.5312-9.9844-4.7812-24.328-13.922-41.156-31.125-56.766v-146.48c20.953-17.812 39.422-35.344 55.969-52.734 5.2969 3.4219 10.828 6.5156 16.453 9.2812l-4.4062 14.25c-1.9688 6.375 1.5938 13.125 7.9688 15.094 1.1719 0.375 2.3906 0.5625 3.5625 0.5625 5.1562 0 9.9375-3.3281 11.531-8.5312l3.7969-12.328c14.672 4.6875 30 7.3125 45.375 7.6875l0.98438 11.062c0.5625 6.2812 5.8125 10.969 12 10.969 0.375 0 0.75 0 1.125-0.046875 6.6562-0.60938 11.531-6.4688 10.922-13.125l-0.9375-10.172c12.234-1.5469 24.328-4.4531 35.906-8.6719l6.2812 10.5c2.25 3.75 6.2344 5.8594 10.359 5.8594 2.1094 0 4.2656-0.5625 6.1875-1.7344 5.7188-3.4219 7.5938-10.828 4.125-16.547l-4.8281-8.0625c5.625-3.0469 11.109-6.3281 16.312-10.031 0.46875-0.32812 0.75-0.84375 1.1719-1.2188 18.703 4.8281 38.016 7.4062 57.281 7.4062h134.16l5.8594 67.172c0.14062 1.4062 0.51562 2.8125 1.125 4.125l8.9062 18.844v101.06c0 3.1875 1.2656 6.2812 3.5156 8.5312l7.6406 7.6406v48.609c0 6.6562 5.3906 12.047 12.047 12.047h78.094c3.4219 0 6.7031-1.4531 9-3.9844 2.2969-2.5781 3.375-5.9531 3-9.375-2.625-24.234-12.234-39.141-25.641-56.484v-102.47l9.9375-19.828c0.60938-1.2188 0.98438-2.5312 1.1719-3.8438l1.1719-9.1406 6.0469 26.906v101.34c0 2.7656 0.9375 5.3906 2.6719 7.5469l6.9375 8.625 7.4062 50.391c0.84375 5.9062 5.9531 10.312 11.953 10.312h74.766c3.7031 0 7.1719-1.6875 9.4688-4.5938s3.1406-6.7031 2.25-10.266c-6.1406-25.875-17.672-41.25-34.219-56.25v-109.27l11.109-24.422c0.65625-1.4062 0.98438-2.9531 1.0781-4.5l4.4531-106.97c1.7344-2.2031 3.5156-4.2656 5.1562-6.6094 19.688-28.078 31.688-62.344 43.312-95.531 2.2969-6.5625 4.5469-13.031 6.8906-19.406 6.2812-17.625 13.875-36.984 23.297-50.625 0.14062 0.046875 0.28125 0.09375 0.375 0.14062 1.5 2.9062 3.2344 5.625 5.5312 8.0625 6.7031 7.0312 15.844 10.922 25.734 10.922h86.062c19.828 0 36.844-16.125 37.875-35.953l1.9219-36.75c0.51562-9.8906-2.8594-19.266-9.5625-26.297-1.3594-1.4062-2.8594-2.5781-4.3594-3.75-9.8438-12.422-23.016-42-32.578-72.984l2.625-19.547zm31.547-47.297c-2.9531 6.375-7.2188 11.953-12.422 15.938-6.7031 5.1562-14.906 7.5938-22.969 7.1719-3.0938-5.2031-5.9062-10.781-8.5312-16.688 13.312-7.6406 29.25-9.9844 43.922-6.4219zm-60.141-70.312c8.2031 13.969 8.1562 28.641 0.32812 44.953-3.375-5.1562-6.9375-9.6562-10.734-13.547 5.3438-9.1406 8.8125-19.547 10.406-31.406zm-187.22 47.484c-6.375-11.344-7.9688-25.594-4.3125-38.062 0.9375-3.1406 2.2031-6.6562 3.8906-10.172 0.9375 3.1875 2.1094 6.375 3.5625 9.5156 4.5938 9.8438 10.969 18.094 17.953 25.969-4.9219 5.1562-9.5625 10.969-13.641 17.953-2.2031-1.2656-4.5469-2.2969-6.8438-3.4219-0.23438-0.60938-0.23438-1.2188-0.5625-1.7812zm-484.36 466.4c-24.844-0.23438-49.5-7.3125-70.781-20.109 13.5-15.469 25.266-30.844 35.344-46.172l88.969 43.359c4.5 2.2031 9.0938 4.1719 13.734 6.0938-20.625 11.062-44.109 17.062-67.266 16.828zm414.52-0.375c26.156-0.51563 48.797-7.9219 68.203-22.406l-3.2812 78.422-11.203 24.656c-0.70312 1.5469-1.0781 3.2812-1.0781 4.9688v117.33h-23.812l-0.23438-1.7344c-0.32812-2.1094-1.1719-4.125-2.5312-5.8125l-6.3281-7.875v-98.438c0-0.89062-0.09375-1.7812-0.28125-2.625l-19.406-86.531zm303.52-237.84c-0.375 7.0781-6.7031 13.078-13.781 13.078h-86.062c-3.1875 0-6.1406-1.2188-8.2031-3.4219-2.1094-2.2031-3.1406-5.2031-3-8.3906l1.9219-36.75c0.375-7.125 6.7031-13.125 13.781-13.125h86.062c3.2344 0 6.1406 1.2188 8.2031 3.4219 2.1094 2.2031 3.1406 5.2031 3 8.4375zm-20.391-72.75h-75c-19.828 0-36.844 16.125-37.875 36l-1.3594 25.688c-28.547-15.75-54.188-33.328-76.078-52.594-6.5156-20.531-9-41.625-7.4062-62.672 0.51562-6.6562-4.4531-12.422-11.109-12.938-6.6562-0.46875-12.422 4.4531-12.938 11.109-1.9219 25.359 1.2656 50.672 9.5625 75.234 0.65625 1.9688 1.8281 3.75 3.375 5.1094 22.172 19.875 47.953 38.062 76.594 54.422-10.266 15.516-18.094 34.828-24.938 53.953-0.046875 0.14062-0.09375 0.32812-0.1875 0.46875-1.4531-0.51562-2.9531-1.0312-4.3594-1.6406-13.266-5.7656-25.828-13.547-37.125-22.734-12.562-10.312-23.109-22.641-32.109-36.281-5.1562-8.25-9.6094-16.969-15.75-24.469-6.1406-7.6406-14.531-13.875-24.094-15.234-17.203-2.2031-32.109 11.672-42.047 25.828-7.125 10.078-13.406 21.516-14.016 33.797-0.84375 19.453 12.422 36.422 26.062 50.297 13.781 13.781 29.156 27.422 34.828 45.984 3.3281 10.688 3.0938 22.641 8.8594 32.109 5.1562 8.625 14.391 14.016 23.625 17.953 8.2031 3.4688 16.734 6.0938 25.406 7.875-19.547 25.5-43.5 38.203-74.25 39.188l5.3438-41.625c0.84375-6.6094-3.7969-12.656-10.406-13.5-6.5625-0.75-12.656 3.7969-13.5 10.406l-17.578 136.45-10.266 20.531c-0.84375 1.6875-1.2656 3.5156-1.2656 5.3906v109.45h-28.266c0-3.1875-1.2656-6.2812-3.5156-8.5312l-7.6406-7.6406v-98.812c0-1.7812-0.375-3.5625-1.1719-5.1562l-9.1406-19.312-15.422-176.53c-0.5625-6.6562-6.4219-11.578-13.078-10.969-6.6562 0.5625-11.531 6.4219-10.969 13.078l7.6406 87.422h-132.05c-30.938 0-62.062-7.1719-89.859-20.719l-86.906-42.375c5.5781-9.8906 10.688-19.734 14.859-29.625 2.625-6.1406-0.28125-13.219-6.375-15.844-6.1406-2.5781-13.219 0.28125-15.797 6.4219-22.312 52.547-65.766 105.47-132.94 161.86-2.7188 2.2969-4.3125 5.6719-4.3125 9.2344v157.55h-38.203l-0.14062-0.98437c-1.4531-81.891-3.7969-153.42-16.453-196.55 15.797-21.938 23.156-54.656 24.891-97.359 34.641-9.5625 67.594-24.984 96.984-45.797 10.453-7.5 20.906-16.219 25.078-28.406 5.7656-16.219-1.9688-35.297-15.844-45.375-7.0312-5.1562-15.844-8.7188-19.922-16.359-4.9219-9.2344-0.98438-20.531 2.1094-30.516 3.7969-12.562 6.375-26.062 2.5781-38.625-4.0781-13.875-15.234-24.703-27.656-32.109-20.25-11.953-43.5-16.172-67.219-17.859 12.188-36.234 38.109-58.266 78.234-66.609 14.203-2.9062 30.422-3.4688 49.312-1.7812 4.5938 0.46875 9.0938 0.84375 13.547 1.2656-3.2344 7.9219-6.0938 16.031-7.6406 24.516-2.5781 14.766-0.60938 29.016 6.375 40.453 4.7812 8.0156 12.047 14.625 21.891 19.078 19.453 9 43.547 11.203 58.406 28.172 12.422 14.016 14.016 34.172 14.016 52.781 0 18.562-0.60938 38.25 8.625 54.375 12.656 22.125 39.844 31.359 64.922 37.266 23.016 5.3906 50.156 8.7188 67.406-7.0312 24.094-22.266 11.578-65.812 33.938-89.766 18.797-19.922 55.078-17.953 70.828-40.359 9-12.656 8.3438-29.625 4.7812-44.625-3.4219-15-9.4688-29.531-10.312-44.906-0.42188-7.6875 1.0312-15.609 4.125-22.641 3.1875-0.1875 6.2812-0.28125 9.5156-0.46875 35.906-2.25 71.297-5.0156 108-8.4375 22.734 22.031 53.297 29.672 91.359 22.547 6.5625-1.2188 10.875-7.5 9.6562-14.062s-7.5-10.922-14.062-9.6562c-38.438 7.125-65.297-3.375-83.484-33.094 36.703-7.0781 66.562-1.7812 91.031 16.172 2.9531 2.1562 6.7031 2.9062 10.219 1.9219 3.5156-0.9375 6.4219-3.375 7.9219-6.7031 15.141-33.656 35.906-43.641 71.719-34.5 9 2.2969 19.5 1.0781 29.719-0.09375 8.7188-1.0312 18.656-2.2031 23.344-0.23437 9.5625 3.8906 17.859 13.172 25.312 28.359 2.1562 4.4062 4.125 8.9062 6.0938 13.453 3.7031 8.4844 7.5938 17.156 12.656 25.453-0.9375-0.14062-1.9219-0.28125-2.9062-0.28125-9.6094 0-17.344 7.7812-17.344 17.344 0 9.6094 7.7812 17.344 17.344 17.344 0.09375 0 0.23438-0.046874 0.32812-0.046874 5.5781 18.562 14.25 42.094 23.906 61.125zm-132.14-76.828c0 9.6094-7.7812 17.344-17.391 17.344-9.6094 0-17.344-7.7812-17.344-17.344 0-9.6094 7.7812-17.344 17.344-17.344 9.6094 0 17.391 7.7812 17.391 17.344zm-512.44 641.21c0.89062 3.6094 0.046874 7.4062-2.25 10.312-2.2969 2.9062-5.7656 4.6406-9.4688 4.6406h-83.766c-5.4844 0-10.312-3.7031-11.672-9.0469l-10.641-41.156-5.8594-8.2969c-0.1875-0.28125-0.42188-0.60938-0.5625-0.89062-3.1406-4.5938-5.5781-9.7031-7.2656-15.234l-42.562-141.71c-1.9219-6.375 1.6875-13.125 8.0625-15.047 6.375-1.875 13.125 1.6875 15.047 8.0625l42.562 141.66c0.98437 3.2812 2.4375 6.2812 4.3125 8.9062l0.5625 0.84375 4.3125 6.1406h47.203c-2.1562-2.2031-4.4062-4.4062-6.8438-6.6094-1.7344-1.5-2.9531-3.5156-3.5625-5.7188l-31.219-109.45c-1.8281-6.4219 1.875-13.078 8.2969-14.906 6.4219-1.7812 13.078 1.875 14.906 8.2969l30.281 106.17c5.0625 4.7344 9.5625 9.5625 13.641 14.719 12.328 15.703 20.484 33.656 26.484 58.266zm597.74-517.08c5.1094 4.3125 5.7188 11.906 1.4062 17.016-2.3906 2.8125-5.8125 4.2656-9.2344 4.2656-2.7656 0-5.5312-0.9375-7.7812-2.8594l-7.9688-6.75c-5.1094-4.3125-5.7188-11.906-1.4062-17.016s11.906-5.7188 17.016-1.4062zm53.625-5.2969c4.3125 5.1094 3.6562 12.703-1.4062 17.016l-7.9688 6.75c-2.25 1.9219-5.0156 2.8594-7.7812 2.8594-3.4219 0-6.8438-1.4531-9.2344-4.2656-4.3125-5.1094-3.6562-12.703 1.4062-17.016l7.9688-6.75c5.1094-4.3125 12.703-3.6562 17.016 1.4062z"/>
</svg>
