<?xml version="1.0" encoding="UTF-8"?>
<svg fill="currentColor" width="512pt" height="512pt" version="1.1" viewBox="0 0 512 512" xmlns="http://www.w3.org/2000/svg">
 <path d="m91.137 470.02c1.5352 16.895 15.359 29.184 32.258 29.184h265.21c16.895 0 30.719-12.801 32.258-29.184l29.691-311.3h-389.12zm229.89-214.02c0-8.7031 7.168-16.383 16.383-16.383 8.7031 0 16.383 7.168 16.383 16.383v145.92c0 8.7031-7.168 16.383-16.383 16.383-8.7031 0-16.383-7.168-16.383-16.383zm-81.406 0c0-8.7031 7.168-16.383 16.383-16.383 8.7031 0 16.383 7.168 16.383 16.383v145.92c0 8.7031-7.168 16.383-16.383 16.383-8.7031 0-16.383-7.168-16.383-16.383zm-80.898 0c0-8.7031 7.168-16.383 16.383-16.383 8.7031 0 16.383 7.168 16.383 16.383v145.92c0 8.7031-7.168 16.383-16.383 16.383-8.7031 0-16.383-7.168-16.383-16.383z"/>
 <path d="m450.56 61.441h-129.54v-16.387c0-17.922-14.336-32.258-32.258-32.258l-65.023 0.003906c-17.922 0-32.258 14.336-32.258 32.258l0.003906 16.383h-130.05c-17.922 0-32.258 14.336-32.258 32.258s14.336 32.258 32.258 32.258h389.12c17.922 0 32.258-14.336 32.258-32.258-0.003906-17.922-14.34-32.258-32.262-32.258z"/>
</svg>
