<?xml version="1.0" encoding="UTF-8"?>
<svg fill="currentColor" width="512pt" height="512pt" version="1.1" viewBox="0 0 512 512" xmlns="http://www.w3.org/2000/svg">
 <path d="m93.914 227.48h132.7c0 25.27-12.652 48.617-33.191 61.254-20.512 12.641-45.801 12.641-66.344 0-20.508-12.637-33.16-35.977-33.16-61.254zm122.79-78.152c5.9414 0.14453 11.766 1.75 16.914 4.7148 10.957 6.3125 17.723 17.977 17.723 30.613h-70.926c0-12.637 6.7695-24.301 17.734-30.613 5.6406-3.2305 12.059-4.8594 18.555-4.7148zm-111.23 0c5.9336 0.14453 11.738 1.75 16.906 4.7148 10.965 6.3125 17.727 17.977 17.727 30.613h-70.922c0-12.637 6.7422-24.301 17.738-30.613 5.6094-3.2305 12.055-4.8594 18.551-4.7148zm-77.012-81.625v178.4c0 73.207 58.906 132.4 131.8 132.4 25.031 0 48.355-7.082 68.27-19.211 18.949 49.801 66.934 84.996 123.21 84.996 72.883 0 131.81-59.191 131.81-132.4v-178.4h-162.81v17.203h145.68v161.21c0 63.977-51.012 115.14-114.66 115.14-50.746 0-93.297-32.598-108.61-78.105 27.219-22.156 45.512-54.902 48.473-92.066h30.047c0-13.496-7.2422-25.984-18.965-32.711-3.375-1.9414-6.9492-3.2344-10.617-4.0703v-152.39z" fill-rule="evenodd"/>
 <path d="m440.57 256.85c0-13.465-7.2148-25.926-18.945-32.684-11.734-6.7344-26.188-6.7344-37.91 0-11.738 6.7578-18.973 19.219-18.973 32.684z" fill-rule="evenodd"/>
 <path d="m351.71 302.64c-32.098 0-60.199 22.992-68.504 56.035h16.91c17.523-11.812 28.516-18.27 51.594-18.305 23.141 0 34.133 6.4922 51.688 18.305h16.852c-8.3398-33.043-36.414-56.035-68.539-56.035z" fill-rule="evenodd"/>
</svg>
