<?xml version="1.0" encoding="UTF-8"?>
<svg fill="currentColor" width="512pt" height="512pt" version="1.1" viewBox="0 0 512 512" xmlns="http://www.w3.org/2000/svg">
 <path d="m475.86 57.82c14 14 14 36.68 0 50.68l-45.5 45.52-72.422-72.422 45.52-45.5c14-14 36.68-14 50.68 0z"/>
 <path d="m174.4 265.14 158.2-158.2 72.422 72.422-159.52 159.5c-4.7617 4.7617-10.762 8.0781-17.32 9.6016l-45.781 10.5c-13.922 3.1797-26.762-8.5-24.879-22.66l6.6992-50.52c1.0391-7.8008 4.6211-15.059 10.18-20.641z"/>
 <path d="m87.039 92.16c0-2.8203 2.3008-5.1211 5.1211-5.1211h148.48c16.961 0 30.719-13.762 30.719-30.719 0-16.961-13.762-30.719-30.719-30.719h-148.48c-36.762 0-66.559 29.801-66.559 66.559v327.68c0 36.762 29.801 66.559 66.559 66.559h327.68c36.762 0 66.559-29.801 66.559-66.559v-148.48c0-16.961-13.762-30.719-30.719-30.719-16.961 0-30.719 13.762-30.719 30.719v148.48c0 2.8203-2.3008 5.1211-5.1211 5.1211h-327.68c-2.8203 0-5.1211-2.3008-5.1211-5.1211z"/>
</svg>
