<?xml version="1.0" encoding="UTF-8"?>
<svg fill="currentColor" width="512pt" height="512pt" version="1.1" viewBox="0 0 512 512" xmlns="http://www.w3.org/2000/svg">
 <path d="m256 290.5c-9.0273 0-18.055-3.5469-24.504-9.9961-6.4492-6.4492-9.9961-15.156-9.9961-24.504 0-9.0273 3.5469-18.055 9.9961-24.504 6.4492-6.4492 15.156-9.9961 24.504-9.9961 9.0273 0 18.055 3.5469 24.504 9.9961 6.4492 6.4492 9.9961 15.156 9.9961 24.504 0 9.0273-3.5469 18.055-9.9961 24.504-6.4492 6.4492-15.477 9.9961-24.504 9.9961zm34.5-153.16c0-9.0273-3.5469-18.055-9.9961-24.504-6.4492-6.4492-15.156-9.9961-24.504-9.9961-9.0273 0-18.055 3.5469-24.504 9.9961-6.4492 6.4492-9.9961 15.156-9.9961 24.504 0 9.0273 3.5469 18.055 9.9961 24.504 6.4492 6.4492 15.156 9.9961 24.504 9.9961 9.0273 0 18.055-3.5469 24.504-9.9961 6.4492-6.4492 9.9961-15.152 9.9961-24.504zm0 237.31c0-9.0273-3.5469-18.055-9.9961-24.504-6.4492-6.4492-15.156-9.9961-24.504-9.9961-9.0273 0-18.055 3.5469-24.504 9.9961-6.4492 6.4492-9.9961 15.156-9.9961 24.504 0 9.0273 3.5469 18.055 9.9961 24.504 6.4492 6.4492 15.156 9.9961 24.504 9.9961 9.0273 0 18.055-3.5469 24.504-9.9961 6.4492-6.7695 9.9961-15.473 9.9961-24.504z"/>
</svg>
