<?xml version="1.0" encoding="UTF-8"?>
<svg fill="currentColor" width="512pt" height="512pt" version="1.1" viewBox="0 0 512 512" xmlns="http://www.w3.org/2000/svg">
 <path d="m310.79 256c0 14.336-5.6328 28.672-15.871 38.91-10.238 10.238-24.062 15.871-38.91 15.871-14.336 0-28.672-5.6328-38.91-15.871-10.238-10.238-15.871-24.062-15.871-38.91 0-14.336 5.6328-28.672 15.871-38.91 10.238-10.238 24.062-15.871 38.91-15.871 14.336 0 28.672 5.6328 38.91 15.871 10.238 10.238 15.871 24.574 15.871 38.91zm-243.2-54.785c-14.336 0-28.672 5.6328-38.91 15.871-10.238 10.238-15.871 24.062-15.871 38.91 0 14.336 5.6328 28.672 15.871 38.91s24.062 15.871 38.91 15.871c14.336 0 28.672-5.6328 38.91-15.871 10.238-10.238 15.871-24.062 15.871-38.91 0-14.336-5.6328-28.672-15.871-38.91-10.238-10.238-24.062-15.871-38.91-15.871zm376.83 0c-14.336 0-28.672 5.6328-38.91 15.871-10.238 10.238-15.871 24.062-15.871 38.91 0 14.336 5.6328 28.672 15.871 38.91 10.238 10.238 24.062 15.871 38.91 15.871 14.336 0 28.672-5.6328 38.91-15.871s15.871-24.062 15.871-38.91c0-14.336-5.6328-28.672-15.871-38.91-10.75-10.238-24.57-15.871-38.91-15.871z"/>
</svg>
