<svg xmlns="http://www.w3.org/2000/svg" viewBox="0 0 1200 1200"><path d="m876 720c-0.05 41.36-16.5 81.01-45.74 110.26-29.25 29.25-68.9 45.7-110.26 45.74-22.27 0.03-43.62 8.88-59.37 24.63-15.75 15.75-24.61 37.1-24.63 59.37v180c0 12.86-6.86 24.75-18 31.18-11.14 6.43-24.86 6.43-36 0-11.14-6.43-18-18.31-18-31.18v-180c0.05-41.36 16.5-81.01 45.74-110.26 29.25-29.25 68.9-45.7 110.26-45.74 30.01 0 57.74-16.01 72.75-42s15-58.01 0-84-42.73-42-72.75-42c-41.36-0.05-81.01-16.5-110.26-45.74-29.25-29.25-45.7-68.9-45.74-110.26v-301.1l-150.05 225.07c-7.13 10.7-19.43 16.79-32.27 15.96-12.84-0.83-24.25-8.44-29.95-19.97-5.7-11.53-4.82-25.22 2.32-35.93l215.86-323.79 0.09-0.14 0.05-0.07 0.05-0.05h0c0.73-1.01 1.52-1.98 2.36-2.9 0.69-0.82 1.28-1.71 2.05-2.48l0.09-0.09c0.82-0.82 1.76-1.46 2.65-2.18 0.91-0.75 1.76-1.57 2.74-2.23l0.05-0.05 0.03-0.02c1.01-0.61 2.05-1.17 3.12-1.68 1-0.53 1.95-1.14 3-1.58l0.23-0.1c0.74-0.3 1.51-0.43 2.26-0.68 0.4-0.13 0.8-0.25 1.21-0.36 1-0.3 1.96-0.7 2.99-0.9l0.22-0.04c1.01-0.2 2.02-0.2 3.04-0.31 1.26-0.19 2.53-0.31 3.81-0.36l0.07-0.01 0.11 0.01c0.8 0 1.59 0.17 2.39 0.23 1.5 0.06 3 0.21 4.49 0.46l0.09 0.02c1.11 0.22 2.14 0.64 3.21 0.96 1.13 0.28 2.25 0.62 3.35 1.02l0.14 0.07v0c1.2 0.55 2.37 1.17 3.5 1.85 0.88 0.48 1.8 0.86 2.64 1.41l0.05 0.03 0.05 0.05c1.09 0.79 2.12 1.63 3.11 2.54 0.75 0.63 1.56 1.16 2.26 1.87l0.1 0.1c0.77 0.77 1.36 1.65 2.05 2.48 0.84 0.93 1.63 1.89 2.36 2.9l0.05 0.05 0.05 0.07 0.09 0.14 215.86 323.79h0c7.13 10.7 8.02 24.39 2.32 35.93-5.7 11.53-17.12 19.14-29.95 19.97-12.84 0.83-25.14-5.26-32.27-15.96l-150.05-225.07v301.1c0.02 22.27 8.88 43.62 24.63 59.37 15.75 15.75 37.1 24.61 59.37 24.63 41.36 0.05 81.01 16.5 110.26 45.74 29.25 29.25 45.7 68.9 45.74 110.26z" fill="#000" stroke="#000" stroke-width="32" stroke-linejoin="round" stroke-linecap="round"/></svg>
