<?xml version="1.0" encoding="UTF-8"?>
<svg fill="currentColor" width="512pt" height="512pt" version="1.1" viewBox="0 0 512 512" xmlns="http://www.w3.org/2000/svg">
 <path d="m426.67 490.67h-341.34c-5.6562 0-11.082-2.25-15.082-6.25-4.0039-4-6.25-9.4258-6.25-15.086v-426.66c0-5.6602 2.2461-11.086 6.25-15.086 4-4 9.4258-6.25 15.082-6.25h213.34c5.668-0.03125 11.121 2.1953 15.145 6.1875l128 128c3.9961 4.0273 6.2188 9.4766 6.1875 15.148v298.66c0 5.6602-2.2461 11.086-6.25 15.086-4 4-9.4258 6.25-15.082 6.25zm-320-42.668h298.66v-268.59l-115.41-115.41h-183.25z"/>
 <path d="m426.67 192h-128c-5.6602 0-11.086-2.2461-15.086-6.25-4-4-6.25-9.4258-6.25-15.082v-128c0-7.6211 4.0664-14.664 10.668-18.477s14.734-3.8125 21.332 0c6.6016 3.8125 10.668 10.855 10.668 18.477v106.66h106.67c7.6211 0 14.664 4.0664 18.473 10.668 3.8125 6.6016 3.8125 14.734 0 21.332-3.8086 6.6016-10.852 10.668-18.473 10.668z"/>
 <path d="m256 405.33c-5.6562 0-11.086-2.2461-15.086-6.2461s-6.2461-9.4297-6.2461-15.086v-128c0-7.6211 4.0664-14.664 10.664-18.477 6.6016-3.8086 14.734-3.8086 21.336 0 6.5977 3.8125 10.664 10.855 10.664 18.477v128c0 5.6562-2.2461 11.086-6.2461 15.086s-9.4297 6.2461-15.086 6.2461z"/>
 <path d="m320 341.33h-128c-7.6211 0-14.664-4.0664-18.477-10.664-3.8086-6.6016-3.8086-14.734 0-21.336 3.8125-6.5977 10.855-10.664 18.477-10.664h128c7.6211 0 14.664 4.0664 18.477 10.664 3.8086 6.6016 3.8086 14.734 0 21.336-3.8125 6.5977-10.855 10.664-18.477 10.664z"/>
</svg>
