<?xml version="1.0" encoding="UTF-8"?>
<svg fill="currentColor" width="512pt" height="512pt" version="1.1" viewBox="0 0 512 512" xmlns="http://www.w3.org/2000/svg">
 <path d="m384 192h-128c-5.6562 0-11.086-2.2461-15.086-6.25-4-4-6.2461-9.4258-6.2461-15.082v-128c0-7.6211 4.0664-14.664 10.664-18.477 6.6016-3.8125 14.734-3.8125 21.336 0 6.5977 3.8125 10.664 10.855 10.664 18.477v106.66h106.67c7.6211 0 14.664 4.0664 18.477 10.668 3.8086 6.6016 3.8086 14.734 0 21.332-3.8125 6.6016-10.855 10.668-18.477 10.668z"/>
 <path d="m320 405.33h-64c-5.6562 0-11.086-2.2461-15.086-6.2461s-6.2461-9.4297-6.2461-15.086v-64c-0.035157-5.6719 2.1914-11.121 6.1836-15.148l136.11-136.11h0.003907c12.246-13.648 29.562-21.66 47.895-22.156 18.328-0.49609 36.055 6.5664 49.023 19.531 12.965 12.969 20.027 30.695 19.531 49.023-0.49609 18.332-8.5078 35.648-22.156 47.895l-136.11 136.11v0.003907c-4.0273 3.9922-9.4766 6.2188-15.148 6.1836zm-42.668-42.668h33.922l129.71-129.92v0.003906c5.0039-4.3438 7.9805-10.574 8.2109-17.199 0.23438-6.625-2.2969-13.051-6.9805-17.738-4.6875-4.6836-11.113-7.2148-17.738-6.9805-6.625 0.23047-12.855 3.207-17.199 8.2109l-129.92 129.71z"/>
 <path d="m347.67 228.45 30.168-30.168 63.961 63.961-30.168 30.168z"/>
 <path d="m384 490.67h-341.33c-5.6602 0-11.086-2.25-15.086-6.25s-6.25-9.4258-6.25-15.086v-426.66c0-5.6602 2.25-11.086 6.25-15.086s9.4258-6.25 15.086-6.25h213.33c5.6719-0.03125 11.121 2.1953 15.148 6.1875l128 128c3.9922 4.0273 6.2188 9.4766 6.1836 15.148v21.332c0 7.6211-4.0664 14.664-10.664 18.477-6.6016 3.8086-14.734 3.8086-21.336 0-6.5977-3.8125-10.664-10.855-10.664-18.477v-12.586l-115.41-115.41h-183.25v384h298.67v-128c0-7.6211 4.0664-14.664 10.664-18.477 6.6016-3.8086 14.734-3.8086 21.336 0 6.5977 3.8125 10.664 10.855 10.664 18.477v149.33c0 5.6602-2.2461 11.086-6.2461 15.086s-9.4297 6.25-15.086 6.25z"/>
</svg>
