<?xml version="1.0" encoding="UTF-8"?>
<svg fill="currentColor" width="512pt" height="512pt" version="1.1" viewBox="0 0 512 512" xmlns="http://www.w3.org/2000/svg">
 <path d="m448 405.33h-298.67c-5.6562 0-11.082-2.2461-15.082-6.2461-4.0039-4-6.25-9.4297-6.25-15.086v-341.33c0-5.6602 2.2461-11.086 6.25-15.086 4-4 9.4258-6.25 15.082-6.25h170.67c5.6719-0.03125 11.121 2.1953 15.148 6.1875l128 128c3.9922 4.0273 6.2188 9.4766 6.1836 15.148v213.33c0 5.6562-2.2461 11.086-6.2461 15.086s-9.4297 6.2461-15.086 6.2461zm-277.33-42.664h256v-183.25l-115.41-115.41h-140.59z"/>
 <path d="m362.67 490.67h-298.67c-5.6562 0-11.086-2.25-15.086-6.25s-6.2461-9.4258-6.2461-15.086v-341.33c0-5.6562 2.2461-11.086 6.2461-15.086s9.4297-6.2461 15.086-6.2461h85.332v42.664h-64v298.67h256v-64h42.668v85.332c0 5.6602-2.2461 11.086-6.25 15.086-4 4-9.4258 6.25-15.082 6.25z"/>
 <path d="m448 192h-128c-5.6562 0-11.086-2.2461-15.086-6.25-4-4-6.2461-9.4258-6.2461-15.082v-128c0-7.6211 4.0664-14.664 10.664-18.477 6.6016-3.8125 14.734-3.8125 21.336 0 6.5977 3.8125 10.664 10.855 10.664 18.477v106.66h106.67c7.6211 0 14.664 4.0664 18.477 10.668 3.8086 6.6016 3.8086 14.734 0 21.332-3.8125 6.6016-10.855 10.668-18.477 10.668z"/>
</svg>
