<?xml version="1.0" encoding="UTF-8"?>
<svg fill="currentColor" width="512pt" height="512pt" version="1.1" viewBox="0 0 512 512" xmlns="http://www.w3.org/2000/svg">
 <path d="m110.08 25.602c-12.719 0-23.039 10.32-23.039 23.039v414.72c0 12.719 10.32 23.039 23.039 23.039s23.039-10.32 23.039-23.039v-168c17-6.9805 34.68-13.84 52.922-16.539 21.5-3.1797 41.32 4.2617 61 12.02 20.918 8.2812 46.699 18.48 79.801 13.578 29.34-4.3398 73.02-21.281 83.117-25.84 9.3008-4.1992 15-13.422 15-23.281v-165.32c0-18.82-19.34-30.82-36.039-23.52-14.16 6.1992-47.98 17.82-68.082 20.801-21.5 3.1797-41.32-4.2617-61-12.02-20.918-8.2812-46.699-18.48-79.801-13.578-15.262 2.2617-32.641 7.8203-46.922 13.102v-26.121c0-12.719-10.32-23.039-23.039-23.039z"/>
</svg>
