<?xml version="1.0" encoding="UTF-8"?>
<svg fill="currentColor" width="512pt" height="512pt" version="1.1" viewBox="0 0 512 512" xmlns="http://www.w3.org/2000/svg">
 <path d="m436.07 285.18-32.461-37.887c-1.6055-1.8477-2.4961-4.2109-2.5078-6.6562v-30.719c0.03125-32.719-9.7305-64.695-28.035-91.812-18.301-27.121-44.301-48.137-74.652-60.352-30.352-12.211-63.664-15.055-95.648-8.1641-31.984 6.8867-61.172 23.191-83.805 46.816-22.637 23.621-37.68 53.48-43.195 85.727-5.5156 32.25-1.25 65.41 12.246 95.215 7.3281 14.559 16.613 28.047 27.598 40.09 4.0977 5.1211 8.3438 10.238 12.441 15.359 15.113 19.027 26.492 40.742 33.535 64 5.3086 19.336 8.25 39.242 8.7578 59.289 0.21875 5.4961 4.7383 9.8359 10.238 9.832h102.76c2.7148 0 5.3203-1.082 7.2422-3 1.918-1.9219 3-4.5273 3-7.2422v-20.48c0-8.1484 3.2344-15.961 8.9961-21.723 5.7617-5.7617 13.574-8.9961 21.723-8.9961h46.078c8.1484 0 15.965-3.2383 21.723-9 5.7617-5.7578 9-13.574 9-21.719v-61.441c0-5.6562 4.582-10.242 10.238-10.242h16.949c3.9961 0.003906 7.6289-2.3242 9.3008-5.9531 1.6719-3.6328 1.0781-7.9023-1.5195-10.941zm-84.273-95.742c-27.137 44.953-72.5 71.68-121.4 71.68-48.895 0-94.258-26.727-121.39-71.68-1.9883-3.2734-1.9883-7.3789 0-10.652 27.137-44.543 72.5-71.27 121.39-71.27 48.895 0 94.258 26.727 121.39 71.68h0.003906c1.8281 3.168 1.8281 7.0742 0 10.242z"/>
 <path d="m299.62 151.3c10.109 20.855 10.109 45.191 0 66.047 12.262-9.1133 22.844-20.289 31.285-33.023-8.4414-12.734-19.023-23.91-31.285-33.023z"/>
 <path d="m129.89 184.32c8.4375 12.734 19.023 23.91 31.281 33.023-10.105-20.855-10.105-45.191 0-66.047-12.258 9.1133-22.844 20.289-31.281 33.023z"/>
 <path d="m230.4 128c-14.934 0-29.262 5.9336-39.824 16.496-10.559 10.562-16.496 24.887-16.496 39.824s5.9375 29.262 16.496 39.824c10.562 10.562 24.891 16.496 39.824 16.496 14.938 0 29.266-5.9336 39.824-16.496 10.562-10.562 16.496-24.887 16.496-39.824s-5.9336-29.262-16.496-39.824c-10.559-10.562-24.887-16.496-39.824-16.496zm0 66.559c-4.1406 0-7.875-2.4922-9.457-6.3203-1.5859-3.8242-0.71094-8.2305 2.2188-11.16 2.9258-2.9258 7.332-3.8047 11.16-2.2188 3.8242 1.5859 6.3203 5.3203 6.3203 9.4609 0 2.7148-1.0781 5.3203-3 7.2422-1.9219 1.918-4.5234 2.9961-7.2422 2.9961z"/>
</svg>
