<?xml version="1.0" encoding="UTF-8"?>
<svg fill="currentColor" width="512pt" height="512pt" version="1.1" viewBox="0 0 512 512" xmlns="http://www.w3.org/2000/svg">
 <path d="m256 486.4c127.24 0 230.4-103.16 230.4-230.4s-103.16-230.4-230.4-230.4-230.4 103.16-230.4 230.4 103.16 230.4 230.4 230.4zm0-322.56c-15.559 0-28.16 12.602-28.16 28.16v0.73828c0 9.8984-8.0195 17.922-17.922 17.922-9.8984 0-17.922-8.0195-17.922-17.922v-0.73828c0-35.34 28.66-64 64-64s64 28.66 64 64v2.8789c0 21.48-10.32 41.66-27.762 54.242l-2.7188 1.9609c-9.8008 7.0586-15.602 18.398-15.602 30.48v12.84c0 9.8984-8.0195 17.922-17.922 17.922-9.8984 0-17.922-8.0195-17.922-17.922v-12.84c0-23.602 11.34-45.762 30.48-59.562l2.7188-1.9609c8.0781-5.8203 12.879-15.199 12.879-25.16v-2.8789c0-15.559-12.602-28.16-28.16-28.16zm23.039 197.64c0 12.719-10.32 23.039-23.039 23.039s-23.039-10.32-23.039-23.039c0-12.738 10.32-23.039 23.039-23.039s23.039 10.301 23.039 23.039z" fill-rule="evenodd"/>
</svg>
