<?xml version="1.0" encoding="UTF-8"?>
<svg fill="currentColor" width="512pt" height="512pt" version="1.1" viewBox="0 0 512 512" xmlns="http://www.w3.org/2000/svg">
 <path d="m256 486.4c127.24 0 230.4-103.16 230.4-230.4s-103.16-230.4-230.4-230.4-230.4 103.16-230.4 230.4 103.16 230.4 230.4 230.4zm-23.039-330.24c0-12.719 10.32-23.039 23.039-23.039s23.039 10.32 23.039 23.039-10.32 23.039-23.039 23.039-23.039-10.32-23.039-23.039zm23.039 220.16c-9.8984 0-17.922-8.0195-17.922-17.922v-125.44c0-9.8984 8.0195-17.922 17.922-17.922 9.8984 0 17.922 8.0195 17.922 17.922v125.44c0 9.8984-8.0195 17.922-17.922 17.922z" fill-rule="evenodd"/>
</svg>
