<?xml version="1.0" encoding="UTF-8"?>
<svg fill="currentColor" width="512pt" height="512pt" version="1.1" viewBox="0 0 512 512" xmlns="http://www.w3.org/2000/svg">
 <path d="m465.15 95.742c-2.0703-1.4297-4.7109-1.7539-7.0664-0.86719l-133.84 50.277-133.84-50.277h-4.1484c-0.41406 0.078125-0.82422 0.17969-1.2305 0.30469l-136.55 51.199h0.003906c-2.9922 1.1484-4.9688 4.0195-4.9688 7.2227v256.36c0 2.5195 1.2461 4.8789 3.3281 6.3008 1.2695 0.90234 2.793 1.3867 4.3516 1.3789 0.92969 0.011719 1.8516-0.16406 2.7148-0.51172l133.84-50.277 133.84 50.277c0.79297 0.28125 1.6211 0.4375 2.457 0.46094 0.85547-0.023438 1.7031-0.17969 2.5117-0.46094l136.55-51.199c3.0508-1.0938 5.0938-3.9766 5.1172-7.2188v-256.66c0.058594-2.4727-1.0859-4.8203-3.0703-6.3008zm-285.08 78.953c-1.1602 1.1953-1.8828 2.7461-2.0469 4.4023-0.23828 2.2031 0.51172 4.3945 2.0469 5.9922v168.19l-121.19 45.566v-240.13l121.19-45.566zm136.5 146.64c-3.1016 0.82031-5.3594 3.4961-5.6484 6.6914-0.28516 3.1992 1.4609 6.2344 4.3672 7.5938l1.2812 0.5625v62.668l-121.14-45.566v-162.87c4.7109 2.0977 9.1445 4.7656 13.211 7.9336 3.3594 2.2773 7.9102 1.5508 10.387-1.6602 2.4805-3.2148 2.0352-7.8008-1.0195-10.473-6.707-5.4141-14.363-9.5273-22.578-12.137v-60.926l121.14 45.566zm136.55 31.949-121.19 45.566v-58.52h3.6875c5.2539-0.03125 10.461-1.0195 15.359-2.9219 3.7852-1.625 5.6094-5.9492 4.1406-9.7969s-5.7148-5.8477-9.6211-4.5391c-4.3359 1.7266-9.0469 2.2891-13.668 1.6406v-165.99l121.29-45.566z"/>
 <path d="m120.98 258.71c0.64844 0.074218 1.3008 0.074218 1.9453 0 3.5-0.027344 6.5469-2.4023 7.4258-5.7852 2.6055-9.4297 6.0312-18.613 10.238-27.445 1.8242-3.832 0.19922-8.4141-3.6328-10.238-3.832-1.8242-8.418-0.19922-10.242 3.6328-4.6328 9.7383-8.4023 19.863-11.262 30.262-0.57812 2.0039-0.3125 4.1562 0.73047 5.9609 1.043 1.8047 2.7734 3.1094 4.7969 3.6133z"/>
 <path d="m139.42 210.95c1.6719 1.1758 3.7461 1.6328 5.7578 1.2695 2.0117-0.36719 3.793-1.5273 4.9414-3.2148 4.8203-7.625 11.43-13.949 19.254-18.434 3.7891-1.9375 5.2891-6.5781 3.3516-10.367-1.9375-3.7891-6.5781-5.293-10.367-3.3555-10.098 5.6484-18.648 13.703-24.883 23.449-1.1602 1.668-1.6094 3.7305-1.2461 5.7305 0.36719 2 1.5156 3.7695 3.1914 4.9219z"/>
 <path d="m365.36 327.07c1.9023-0.015625 3.7305-0.74609 5.1211-2.0469 7.8555-7.5273 14.734-16.008 20.48-25.242 2.3789-3.4609 1.5625-8.1914-1.8438-10.652-1.707-1.1094-3.7891-1.4922-5.7812-1.0586-1.9922 0.43359-3.7266 1.6445-4.8164 3.3633-5.0898 8.1367-11.16 15.617-18.074 22.273-2.3438 2.1289-3.1406 5.4766-2.0078 8.4297 1.1328 2.957 3.9609 4.9141 7.125 4.9336z"/>
 <path d="m398.9 270.44c-3.707-1.9219-8.2695-0.50781-10.238 3.1758l-0.35938 0.71875v-0.003906c-1.9219 3.707-0.50781 8.2734 3.1758 10.242 1.1016 0.58984 2.332 0.90625 3.582 0.92188 2.8555 0.003906 5.4766-1.5703 6.8086-4.0977l0.35937-0.71875v0.003907c0.92578-1.7969 1.0977-3.8906 0.47266-5.8164-0.625-1.9219-1.9922-3.5156-3.8008-4.4258z"/>
 <path d="m221.8 211.2c5.7617 8.1016 11.078 16.512 15.926 25.191 1.3711 2.3789 3.9102 3.8398 6.6562 3.8398 1.3477 0.019531 2.6758-0.33594 3.8398-1.0234 3.5039-2.1289 4.7383-6.6211 2.8164-10.242-5.1719-9.2305-10.848-18.168-17-26.777-1.1992-1.707-3.0391-2.8516-5.0977-3.1758-2.0586-0.32031-4.1641 0.20703-5.8242 1.4648-1.6641 1.2617-2.7422 3.1406-2.9883 5.2109-0.25 2.0703 0.35547 4.1523 1.6719 5.7695z"/>
 <path d="m275.71 298.24c6.2656 8.7891 13.383 16.938 21.25 24.32 1.4258 1.6953 3.5117 2.6953 5.7305 2.7383 2.2148 0.042969 4.3398-0.875 5.8281-2.5156 1.4922-1.6367 2.1992-3.8398 1.9492-6.043-0.25391-2.1992-1.4453-4.1836-3.2695-5.4414-7.0664-6.7383-13.461-14.145-19.098-22.121-1.1719-1.7188-2.9922-2.8945-5.043-3.25-2.0508-0.35156-4.1602 0.14062-5.8398 1.3711-1.6836 1.2305-2.793 3.0898-3.0781 5.1523-0.28125 2.0625 0.28516 4.1523 1.5703 5.7891z"/>
 <path d="m247.96 254.16c4.6094 8.0391 10.238 17.461 15.973 26.676h0.003906c1.4141 2.2266 3.8633 3.5781 6.5 3.582 2.793-0.035156 5.3477-1.5742 6.6836-4.0273 1.3359-2.4492 1.2461-5.4297-0.23047-7.7969-5.6836-8.9609-11.109-18.227-15.359-26.062-0.95703-1.8672-2.6406-3.2617-4.6523-3.8594-2.0117-0.59766-4.1836-0.34766-6.0039 0.69922-1.8203 1.043-3.1367 2.7852-3.6367 4.8242-0.50391 2.0391-0.14844 4.1953 0.98047 5.9648z"/>
 <path d="m119.45 348.77c8.9531 0 17.535-3.5547 23.863-9.8867s9.8828-14.918 9.8789-23.871c-0.003906-8.9492-3.5664-17.535-9.9023-23.859-6.332-6.3242-14.922-9.8711-23.875-9.8633-8.9492 0.007812-17.531 3.5742-23.852 9.9141-6.3242 6.3359-9.8672 14.926-9.8555 23.879 0.015625 8.9375 3.5742 17.508 9.9023 23.824 6.3242 6.3164 14.902 9.8633 23.84 9.8633zm0-52.07c4.875 0 9.5508 1.9375 12.996 5.3828 3.4492 3.4492 5.3867 8.125 5.3867 13s-1.9375 9.5508-5.3867 12.996c-3.4453 3.4453-8.1211 5.3828-12.996 5.3828s-9.5508-1.9375-12.996-5.3828c-3.4492-3.4453-5.3828-8.1211-5.3828-12.996 0.066407-4.832 2.0312-9.4414 5.4727-12.832 3.4375-3.3945 8.0742-5.293 12.906-5.293z"/>
 <path d="m376.93 246.27c1.4531 1.5273 3.4727 2.3984 5.582 2.4062 1.9023-0.070313 3.7188-0.8125 5.1211-2.1016l12.953-12.391 12.34 13.004v0.003906c1.4531 1.5273 3.4688 2.3984 5.5781 2.4062 1.918-0.042968 3.7461-0.8125 5.1211-2.1523 3.082-2.9141 3.2188-7.7695 0.30859-10.855l-12.391-12.953 13.414-12.391c1.5352-1.3906 2.4453-3.3398 2.5195-5.4102 0.078125-2.0703-0.6875-4.0859-2.1172-5.5859-1.4297-1.4961-3.4062-2.3555-5.4766-2.375-2.0703-0.023437-4.0625 0.79297-5.5234 2.2617l-13.008 12.34-12.234-12.801c-1.2578-1.8242-3.2422-3.0156-5.4453-3.2656-2.1992-0.25391-4.4023 0.45703-6.043 1.9453-1.6406 1.4922-2.5547 3.6172-2.5117 5.832 0.042968 2.2148 1.0391 4.3008 2.7344 5.7305l12.34 13.004-12.953 12.594c-3.0156 2.9023-3.1523 7.6836-0.30859 10.754z"/>
</svg>
