<?xml version="1.0" encoding="UTF-8"?>
<svg fill="currentColor" width="512pt" height="512pt" version="1.1" viewBox="0 0 512 512" xmlns="http://www.w3.org/2000/svg">
 <path d="m25.602 128c0-16.961 13.762-30.719 30.719-30.719h399.36c16.961 0 30.719 13.762 30.719 30.719 0 16.961-13.762 30.719-30.719 30.719h-399.36c-16.961 0-30.719-13.762-30.719-30.719z"/>
 <path d="m25.602 384c0-16.961 13.762-30.719 30.719-30.719h399.36c16.961 0 30.719 13.762 30.719 30.719 0 16.961-13.762 30.719-30.719 30.719h-399.36c-16.961 0-30.719-13.762-30.719-30.719z"/>
 <path d="m56.32 225.28c-16.961 0-30.719 13.762-30.719 30.719 0 16.961 13.762 30.719 30.719 30.719h399.36c16.961 0 30.719-13.762 30.719-30.719 0-16.961-13.762-30.719-30.719-30.719z"/>
</svg>
