<?xml version="1.0" encoding="UTF-8"?>
<svg fill="currentColor" width="512pt" height="512pt" version="1.1" viewBox="0 0 512 512" xmlns="http://www.w3.org/2000/svg">
 <path transform="matrix(13.979 0 0 13.979 256 257.16)" d="m17.021-0.082627c0 4.5143-1.7934 8.8438-4.9854 12.036-3.192 3.1923-7.5216 4.9854-12.036 4.9854s-8.8438-1.7931-12.036-4.9854c-3.192-3.192-4.9854-7.5216-4.9854-12.036 0-4.5143 1.7934-8.8436 4.9854-12.036 3.192-3.192 7.5216-4.9854 12.036-4.9854s8.8438 1.7934 12.036 4.9854c3.192 3.1923 4.9854 7.5216 4.9854 12.036z" fill="none" stroke="currentColor" stroke-width="2.5838"/>
 <path d="m366.11 349.92-0.125 60.969h-222.56l-0.11719-60.883m222.84-168.89-0.125 60.969h-80.434l0.050781 81.562-61.059-0.058594 0.089843-81.504h-80.953l-0.11719-60.883 81.02-0.082031-0.042969-79.91 61.059-0.082031v79.992"/>
</svg>
