<?xml version="1.0" encoding="UTF-8"?>
<svg fill="currentColor" width="512pt" height="512pt" version="1.1" viewBox="0 0 512 512" xmlns="http://www.w3.org/2000/svg">
 <path d="m450.22 204.8h-143.02v-143.02c0-28.281-22.922-51.199-51.199-51.199-28.281 0-51.199 22.922-51.199 51.199v143.02h-143.02c-28.281 0-51.199 22.922-51.199 51.199 0 28.281 22.922 51.199 51.199 51.199h143.02v143.02c0 28.281 22.922 51.199 51.199 51.199 28.281 0 51.199-22.922 51.199-51.199v-143.02h143.02c28.281 0 51.199-22.922 51.199-51.199 0-28.281-22.922-51.199-51.199-51.199z"/>
</svg>
