<?xml version="1.0" encoding="UTF-8"?>
<svg fill="currentColor" width="512pt" height="512pt" version="1.1" viewBox="0 0 512 512" xmlns="http://www.w3.org/2000/svg">
 <path d="m208.24 87.039c-66.938 0-121.2 54.262-121.2 121.2s54.262 121.2 121.2 121.2c33.48 0 63.738-13.52 85.699-35.5 21.98-21.961 35.5-52.219 35.5-85.699 0-66.938-54.262-121.2-121.2-121.2zm-182.64 121.2c0-100.86 81.781-182.64 182.64-182.64 100.88 0 182.64 81.781 182.64 182.64 0 39.34-12.461 75.801-33.602 105.6l120.12 120.12c12 12 12 31.441 0 43.441s-31.441 12-43.441 0l-120.12-120.12c-29.801 21.141-66.258 33.602-105.6 33.602-100.86 0-182.64-81.762-182.64-182.64z" fill-rule="evenodd"/>
</svg>
