<?xml version="1.0" encoding="UTF-8"?>
<svg fill="currentColor" width="512pt" height="512pt" version="1.1" viewBox="0 0 512 512" xmlns="http://www.w3.org/2000/svg">
 <path d="m220.02 25.602c-19.801 0-35.84 16.039-35.84 35.84v8.3398c0 27.578-29.879 44.82-53.762 31.02l-7.2188-4.1602c-17.141-9.8984-39.059-4.0195-48.961 13.121l-35.84 62.078c-9.8984 17.141-4.0195 39.059 13.121 48.961l7.2188 4.1602c23.879 13.801 23.879 48.281 0 62.078l-7.2188 4.1602c-17.141 9.8984-23.02 31.82-13.121 48.961l35.84 62.078c9.8984 17.141 31.82 23.02 48.961 13.121l7.2188-4.1602c23.879-13.801 53.762 3.4414 53.762 31.02v8.3398c0 19.801 16.039 35.84 35.84 35.84h71.68c19.781 0 35.84-16.039 35.84-35.84v-8.3203c0-27.602 29.859-44.84 53.762-31.039l7.1992 4.1602c17.141 9.8984 39.059 4.0195 48.961-13.121l35.84-62.078c9.8984-17.141 4.0195-39.059-13.121-48.961l-7.1992-4.1602c-23.898-13.801-23.898-48.281 0-62.078l7.1992-4.1602c17.141-9.8984 23.02-31.82 13.121-48.961l-35.84-62.078c-9.8984-17.141-31.82-23.02-48.961-13.121l-7.1992 4.1602c-23.898 13.801-53.762-3.4414-53.762-31.039v-8.3203c0-19.801-16.059-35.84-35.84-35.84zm35.98 317.44c48.078 0 87.039-38.961 87.039-87.039s-38.961-87.039-87.039-87.039-87.039 38.961-87.039 87.039 38.961 87.039 87.039 87.039z" fill-rule="evenodd"/>
</svg>
