<?xml version="1.0" encoding="UTF-8"?>
<svg fill="currentColor" width="1200pt" height="1200pt" version="1.1" viewBox="0 0 1200 1200" xmlns="http://www.w3.org/2000/svg">
 <path d="m138.24 589.66c-57.766-97.652-44.695-225.72 39.195-309.61 99.363-99.363 260.7-99.363 360.07 0 64.918 64.93 87.422 156.32 67.496 239.6-3.2539 14.176-13.949 25.461-27.934 29.477-13.973 4.0156-29.039 0.12891-39.316-10.16l-0.25 0.23828c-99.375-99.375-260.71-99.375-360.07 0-15.469 15.469-28.539 32.438-39.195 50.461z" fill-rule="evenodd"/>
 <path d="m821.93 1005.1c-55.688 98.852-173.13 151.57-287.73 120.87-135.73-36.367-216.4-176.1-180.04-311.83 23.762-88.691 91.664-153.88 173.74-178.25 13.902-4.2656 29.039-0.65234 39.504 9.4453 10.469 10.098 14.625 25.082 10.859 39.137 0.33203 0.09375 0.32031 0.09375 0.32031 0.09375-36.367 135.74 44.305 275.46 180.04 311.83 21.137 5.668 42.367 8.4844 63.305 8.707z" fill-rule="evenodd"/>
 <path d="m360.17 994.73c-113.44 1.1992-217.83-74.152-248.53-188.75-36.367-135.73 44.293-275.46 180.04-311.83 88.691-23.762 179.1 2.4492 241.23 61.344 10.656 9.8984 15.09 24.809 11.574 38.922-3.5039 14.113-14.41 25.211-28.457 28.977 0.082031 0.33203 0.070312 0.33203 0.070312 0.33203-135.73 36.367-216.4 176.09-180.04 311.82 5.668 21.137 13.828 40.941 24.105 59.18z" fill-rule="evenodd"/>
 <path d="m1061.8 610.34c57.766 97.652 44.695 225.72-39.195 309.61-99.363 99.363-260.7 99.363-360.07 0-64.918-64.93-87.422-156.32-67.496-239.6 3.2539-14.176 13.949-25.461 27.934-29.477 13.973-4.0156 29.039-0.12891 39.316 10.16l0.25-0.23828c99.375 99.375 260.71 99.375 360.07 0 15.469-15.469 28.539-32.438 39.195-50.461z" fill-rule="evenodd"/>
 <path d="m839.83 205.27c113.44-1.1992 217.83 74.152 248.53 188.75 36.367 135.73-44.293 275.46-180.04 311.83-88.691 23.762-179.1-2.4492-241.23-61.344-10.656-9.8984-15.09-24.809-11.574-38.922 3.5039-14.113 14.41-25.211 28.457-28.977-0.082031-0.33203-0.070312-0.33203-0.070312-0.33203 135.73-36.367 216.4-176.09 180.04-311.82-5.668-21.137-13.828-40.941-24.105-59.18z" fill-rule="evenodd"/>
 <path d="m378.07 194.93c55.688-98.852 173.13-151.57 287.73-120.87 135.73 36.367 216.4 176.1 180.04 311.83-23.762 88.691-91.664 153.88-173.74 178.25-13.902 4.2656-29.039 0.65234-39.504-9.4453-10.469-10.098-14.625-25.082-10.859-39.137-0.33203-0.09375-0.32031-0.09375-0.32031-0.09375 36.367-135.74-44.305-275.46-180.04-311.83-21.137-5.668-42.367-8.4844-63.305-8.707z" fill-rule="evenodd"/>
</svg>
