<?xml version="1.0" encoding="UTF-8"?>
<svg width="1200pt" height="1200pt" version="1.1" viewBox="0 0 1200 1200" xmlns="http://www.w3.org/2000/svg">
 <path d="m1142.9 733.22-25.219-14.391-434.76 247.92c-51.375 29.297-114.47 29.297-165.84 0l-434.72-247.92-25.219 14.391c-44.062 25.219-44.297 88.781 0 113.86l459.98 262.22c51.375 29.297 114.47 29.297 165.84 0l459.98-262.22c44.297-25.078 44.062-88.688 0-113.86z"/>
 <path d="m1142.9 542.53-25.078-14.297h-0.14062l-434.76 247.92c-51.375 29.297-114.47 29.297-165.84 0l-434.72-247.92h-0.14062l-25.078 14.297c-44.062 25.312-44.297 88.922 0 114l25.219 14.297 434.76 247.92c51.375 29.297 114.47 29.297 165.84 0l434.76-247.92 25.219-14.297c44.297-25.078 44.062-88.688 0-114z"/>
 <path d="m57.141 465.98 25.078 14.297h0.14062l434.76 247.92c51.375 29.297 114.47 29.297 165.84 0l434.76-247.92h0.14062l25.078-14.297c44.156-25.078 44.156-88.781 0-113.86l-460.18-261.52c-51.375-29.156-114.23-29.156-165.61 0l-460.03 261.47c-44.156 25.078-44.156 88.781 0 113.86z"/>
</svg>
