<?xml version="1.0" encoding="UTF-8"?>
<svg fill="currentColor" width="512pt" height="512pt" version="1.1" viewBox="0 0 512 512" xmlns="http://www.w3.org/2000/svg">
 <path d="m276.48 25.602c42.422 0 76.801 34.379 76.801 76.801h40.961c14.141 0 25.602 11.461 25.602 25.602s-11.461 25.602-25.602 25.602h-276.48c-14.141 0-25.602-11.461-25.602-25.602s11.461-25.602 25.602-25.602h40.961c0-42.422 34.379-76.801 76.801-76.801zm-66.559 76.801c0-14.141 11.461-25.602 25.602-25.602h40.961c14.141 0 25.602 11.461 25.602 25.602z" fill-rule="evenodd"/>
 <path d="m399.36 184.32h-286.72v266.24c0 19.801 16.039 35.84 35.84 35.84h215.04c19.801 0 35.84-16.039 35.84-35.84zm-181.76 84.48c0-9.8984-8.0195-17.922-17.922-17.922-9.8984 0-17.922 8.0195-17.922 17.922v133.12c0 9.8984 8.0195 17.922 17.922 17.922 9.8984 0 17.922-8.0195 17.922-17.922zm94.719-17.922c9.8984 0 17.922 8.0195 17.922 17.922v133.12c0 9.8984-8.0195 17.922-17.922 17.922-9.8984 0-17.922-8.0195-17.922-17.922v-133.12c0-9.8984 8.0195-17.922 17.922-17.922z" fill-rule="evenodd"/>
</svg>
