<?xml version="1.0" encoding="UTF-8"?>
<svg fill="currentColor" width="512pt" height="512pt" version="1.1" viewBox="0 0 512 512" xmlns="http://www.w3.org/2000/svg">
 <path d="m455.68 286.72c16.961 0 30.719 13.762 30.719 30.719v92.16c0 36.762-29.801 66.559-66.559 66.559h-327.68c-36.762 0-66.559-29.801-66.559-66.559v-92.16c0-16.961 13.762-30.719 30.719-30.719 16.961 0 30.719 13.762 30.719 30.719v92.16c0 2.8203 2.3008 5.1211 5.1211 5.1211h327.68c2.8203 0 5.1211-2.3008 5.1211-5.1211v-92.16c0-16.961 13.762-30.719 30.719-30.719z"/>
 <path d="m240.94 42.32c8.2188-8.6406 21.898-8.6406 30.121 0l81.461 85.738c12.762 13.422 3.3594 35.781-15.039 35.781h-30.281v163.84c0 19.801-16.039 35.84-35.84 35.84h-30.719c-19.801 0-35.84-16.039-35.84-35.84v-163.84h-30.281c-18.398 0-27.801-22.359-15.039-35.781z"/>
</svg>
