<?xml version="1.0" encoding="UTF-8"?>
<svg fill="currentColor" width="512pt" height="512pt" version="1.1" viewBox="0 0 512 512" xmlns="http://www.w3.org/2000/svg">
 <path d="m285.84 92.578c-14.238-21.039-45.441-21.039-59.68 0l-194.4 287.16c-16.02 23.66 1.0781 55.461 29.84 55.461h388.8c28.762 0 45.859-31.801 29.84-55.461zm-29.84 78.941c9.8984 0 17.922 8.0195 17.922 17.922v104.96c0 9.8984-8.0195 17.922-17.922 17.922-9.8984 0-17.922-8.0195-17.922-17.922v-104.96c0-9.8984 8.0195-17.922 17.922-17.922zm20.48 186.88c0 11.32-9.1602 20.48-20.48 20.48s-20.48-9.1602-20.48-20.48c0-11.32 9.1602-20.48 20.48-20.48s20.48 9.1602 20.48 20.48z" fill-rule="evenodd"/>
</svg>
