<?xml version="1.0" encoding="UTF-8"?>
<svg fill="currentColor" width="512pt" height="512pt" version="1.1" viewBox="0 0 512 512" xmlns="http://www.w3.org/2000/svg">
 <path d="m296.9 256 119.66-119.66c11.32-11.32 11.281-29.621 0-40.898-11.32-11.281-29.621-11.281-40.898 0l-119.66 119.66-119.66-119.68c-11.32-11.281-29.621-11.281-40.898 0-11.281 11.32-11.32 29.621 0 40.898l119.66 119.66-119.66 119.66c-11.32 11.32-11.281 29.621 0 40.898 5.6406 5.6406 13.039 8.4805 20.461 8.4805 7.3984 0 14.82-2.8398 20.461-8.4805l119.66-119.66 119.66 119.66c5.6406 5.6406 13.039 8.4805 20.461 8.4805 7.3984 0 14.82-2.8398 20.461-8.4805 11.281-11.32 11.32-29.621 0-40.898l-119.66-119.66z"/>
</svg>
